<svg width="25" height="25" viewBox="0 0 25 25" fill="none" xmlns="http://www.w3.org/2000/svg">
<g clip-path="url(#clip0_9_163)">
<path d="M21.875 5.20833C20.7187 4.84375 19.4479 4.6875 18.2291 4.6875C16.1979 4.6875 14.0104 5.10417 12.5 6.25C10.9895 5.10417 8.80204 4.6875 6.77079 4.6875C4.73954 4.6875 2.55204 5.10417 1.04163 6.25V21.5104C1.04163 21.7708 1.30204 22.0313 1.56246 22.0313C1.66663 22.0313 1.71871 21.9792 1.82288 21.9792C3.22913 21.3021 5.26038 20.8333 6.77079 20.8333C8.80204 20.8333 10.9895 21.25 12.5 22.3958C13.9062 21.5104 16.4583 20.8333 18.2291 20.8333C19.9479 20.8333 21.7187 21.1458 23.177 21.9271C23.2812 21.9792 23.3333 21.9792 23.4375 21.9792C23.6979 21.9792 23.9583 21.7188 23.9583 21.4583V6.25C23.3333 5.78125 22.6562 5.46875 21.875 5.20833ZM21.875 19.2708C20.7291 18.9063 19.4791 18.75 18.2291 18.75C16.4583 18.75 13.9062 19.4271 12.5 20.3125V8.33333C13.9062 7.44792 16.4583 6.77083 18.2291 6.77083C19.4791 6.77083 20.7291 6.92708 21.875 7.29167V19.2708Z" fill="url(#paint0_linear_9_163)"/>
<path d="M18.2291 10.9375C19.1458 10.9375 20.0312 11.0313 20.8333 11.2083V9.625C20.0104 9.46875 19.125 9.375 18.2291 9.375C16.4583 9.375 14.8541 9.67708 13.5416 10.2396V11.9687C14.7187 11.3021 16.3541 10.9375 18.2291 10.9375Z" fill="url(#paint1_linear_9_163)"/>
<path d="M13.5416 13.0105V14.7396C14.7187 14.073 16.3541 13.7084 18.2291 13.7084C19.1458 13.7084 20.0312 13.8021 20.8333 13.9792V12.3959C20.0104 12.2396 19.125 12.1459 18.2291 12.1459C16.4583 12.1459 14.8541 12.4584 13.5416 13.0105Z" fill="url(#paint2_linear_9_163)"/>
<path d="M18.2291 14.9271C16.4583 14.9271 14.8541 15.2292 13.5416 15.7917V17.5209C14.7187 16.8542 16.3541 16.4896 18.2291 16.4896C19.1458 16.4896 20.0312 16.5834 20.8333 16.7605V15.1771C20.0104 15.0105 19.125 14.9271 18.2291 14.9271Z" fill="url(#paint3_linear_9_163)"/>
</g>
<defs>
<linearGradient id="paint0_linear_9_163" x1="12.5" y1="4.6875" x2="12.5" y2="22.3958" gradientUnits="userSpaceOnUse">
<stop stop-color="#E76E79"/>
<stop offset="1" stop-color="#FACBCF"/>
</linearGradient>
<linearGradient id="paint1_linear_9_163" x1="17.1875" y1="9.375" x2="17.1875" y2="11.9687" gradientUnits="userSpaceOnUse">
<stop stop-color="#E76E79"/>
<stop offset="1" stop-color="#FACBCF"/>
</linearGradient>
<linearGradient id="paint2_linear_9_163" x1="17.1875" y1="12.1459" x2="17.1875" y2="14.7396" gradientUnits="userSpaceOnUse">
<stop stop-color="#E76E79"/>
<stop offset="1" stop-color="#FACBCF"/>
</linearGradient>
<linearGradient id="paint3_linear_9_163" x1="17.1875" y1="14.9271" x2="17.1875" y2="17.5209" gradientUnits="userSpaceOnUse">
<stop stop-color="#E76E79"/>
<stop offset="1" stop-color="#FACBCF"/>
</linearGradient>
<clipPath id="clip0_9_163">
<rect width="25" height="25" fill="white"/>
</clipPath>
</defs>
</svg>
