<svg width="139" height="34" viewBox="0 0 139 34" fill="none" xmlns="http://www.w3.org/2000/svg">
<path d="M7.56003 5.20001V33H0.160034V5.20001H7.56003ZM23.76 5.20001L15.4 17.6L24.48 33H16L7.80003 18.2L16.04 5.20001H23.76Z" fill="#141414"/>
<path d="M38.1794 11.04C38.8727 11.04 39.5927 11.16 40.3394 11.4L39.1794 18.28C38.4861 18.0667 37.8461 17.96 37.2594 17.96C36.0594 17.96 35.1394 18.3733 34.4994 19.2C33.8861 20 33.4061 21.2267 33.0594 22.88V33H25.9394V11.68H32.1394L32.7794 15.72C33.2061 14.3067 33.9127 13.1733 34.8994 12.32C35.9127 11.4667 37.0061 11.04 38.1794 11.04Z" fill="#141414"/>
<path d="M49.2703 11.68V33H42.1503V11.68H49.2703ZM45.7103 0.200012C46.9103 0.200012 47.8837 0.573345 48.6303 1.32001C49.4037 2.06668 49.7903 3.00001 49.7903 4.12001C49.7903 5.24001 49.4037 6.17335 48.6303 6.92001C47.8837 7.66668 46.9103 8.04001 45.7103 8.04001C44.5103 8.04001 43.5237 7.66668 42.7503 6.92001C42.0037 6.17335 41.6303 5.24001 41.6303 4.12001C41.6303 3.00001 42.0037 2.06668 42.7503 1.32001C43.5237 0.573345 44.5103 0.200012 45.7103 0.200012Z" fill="#141414"/>
<path d="M61.4794 10.96C63.0261 10.96 64.4927 11.2 65.8794 11.68C67.2927 12.16 68.4927 12.8133 69.4794 13.64L66.9194 17.56C65.2127 16.4933 63.4927 15.96 61.7594 15.96C61.0127 15.96 60.4527 16.08 60.0794 16.32C59.7327 16.5333 59.5594 16.84 59.5594 17.24C59.5594 17.5867 59.6527 17.8667 59.8394 18.08C60.0261 18.2933 60.4127 18.5333 60.9994 18.8C61.6127 19.04 62.5727 19.36 63.8794 19.76C66.0661 20.4 67.6794 21.24 68.7194 22.28C69.7594 23.2933 70.2794 24.72 70.2794 26.56C70.2794 28 69.8527 29.2667 68.9994 30.36C68.1727 31.4267 67.0127 32.2533 65.5194 32.84C64.0527 33.4267 62.3861 33.72 60.5194 33.72C58.7061 33.72 56.9994 33.44 55.3994 32.88C53.8261 32.2933 52.4927 31.4933 51.3994 30.48L54.7994 26.68C55.6261 27.32 56.5061 27.8267 57.4394 28.2C58.3994 28.5733 59.3594 28.76 60.3194 28.76C61.1727 28.76 61.8261 28.6267 62.2794 28.36C62.7594 28.0667 62.9994 27.64 62.9994 27.08C62.9994 26.6533 62.8927 26.32 62.6794 26.08C62.4927 25.84 62.1194 25.6133 61.5594 25.4C60.9994 25.16 60.0394 24.84 58.6794 24.44C54.5461 23.2133 52.4794 20.96 52.4794 17.68C52.4794 16.4267 52.8394 15.2933 53.5594 14.28C54.2794 13.24 55.3061 12.4267 56.6394 11.84C57.9994 11.2533 59.6127 10.96 61.4794 10.96Z" fill="#141414"/>
<path d="M86.1707 10.96C87.984 10.96 89.4107 11.5333 90.4507 12.68C91.4907 13.8 92.0107 15.36 92.0107 17.36V33H84.8907V18.64C84.8907 17.7067 84.744 17.0667 84.4507 16.72C84.184 16.3467 83.784 16.16 83.2507 16.16C82.1573 16.16 81.104 16.9733 80.0907 18.6V33H72.9707V3.28001L80.0907 2.56001V13.76C80.9707 12.8 81.904 12.0933 82.8907 11.64C83.8773 11.1867 84.9707 10.96 86.1707 10.96Z" fill="#141414"/>
<path d="M109.178 10.96C110.992 10.96 112.418 11.52 113.458 12.64C114.498 13.76 115.018 15.3333 115.018 17.36V33H107.898V18.64C107.898 17.7067 107.765 17.0667 107.498 16.72C107.232 16.3467 106.832 16.16 106.298 16.16C105.178 16.16 104.112 16.9733 103.098 18.6V33H95.9785V11.68H102.178L102.698 14.08C103.658 13.0133 104.658 12.2267 105.698 11.72C106.738 11.2133 107.898 10.96 109.178 10.96Z" fill="#141414"/>
<path d="M136.666 26.44C136.666 27.2133 136.76 27.7867 136.946 28.16C137.16 28.5333 137.52 28.8133 138.026 29L136.586 33.6C135.226 33.4933 134.106 33.2133 133.226 32.76C132.373 32.3067 131.68 31.5867 131.146 30.6C129.786 32.68 127.64 33.72 124.706 33.72C122.6 33.72 120.906 33.1067 119.626 31.88C118.373 30.6267 117.746 29.0133 117.746 27.04C117.746 24.6933 118.613 22.8933 120.346 21.64C122.08 20.3867 124.586 19.76 127.866 19.76H129.706V19.04C129.706 17.8933 129.466 17.12 128.986 16.72C128.506 16.2933 127.64 16.08 126.386 16.08C125.72 16.08 124.88 16.1867 123.866 16.4C122.88 16.5867 121.866 16.8533 120.826 17.2L119.266 12.6C120.546 12.0667 121.92 11.6667 123.386 11.4C124.853 11.1067 126.213 10.96 127.466 10.96C130.666 10.96 133 11.6 134.466 12.88C135.933 14.1333 136.666 16.0667 136.666 18.68V26.44ZM126.866 28.72C127.453 28.72 127.986 28.5733 128.466 28.28C128.973 27.96 129.386 27.5333 129.706 27V23.56H128.506C127.226 23.56 126.28 23.8 125.666 24.28C125.053 24.7333 124.746 25.4267 124.746 26.36C124.746 27.08 124.933 27.6533 125.306 28.08C125.68 28.5067 126.2 28.72 126.866 28.72Z" fill="#141414"/>
</svg>
